HIERARCHY
ROOT Hips
{
	OFFSET 0.00000 0.00000 0.00000
	CHANNELS 6 Xposition Yposition Zposition Zrotation Yrotation Xrotation 
	JOINT LHipJoint
	{
		OFFSET 0 0 0
		CHANNELS 3 Zrotation Yrotation Xrotation
		JOINT LeftHip
		{
			OFFSET 1.26600 -1.82114 0.91038
			CHANNELS 3 Zrotation Yrotation Xrotation
			JOINT LeftKnee
			{
				OFFSET 2.50076 -6.87080 0.00000
				CHANNELS 3 Zrotation Yrotation Xrotation
				JOINT LeftAnkle
				{
					OFFSET 2.57364 -7.07102 0.00000
					CHANNELS 3 Zrotation Yrotation Xrotation
					JOINT LeftToe
					{
						OFFSET 0.13572 -0.37290 1.97004
						CHANNELS 3 Zrotation Yrotation Xrotation
						End Site
						{
							OFFSET 0.00000 -0.00000 1.01383
						}
					}
				}
			}
		}
	}
	JOINT RHipJoint
	{
		OFFSET 0 0 0
		CHANNELS 3 Zrotation Yrotation Xrotation
		JOINT RightHip
		{
			OFFSET -1.20803 -1.82114 0.91038
			CHANNELS 3 Zrotation Yrotation Xrotation
			JOINT RightKnee
			{
				OFFSET -2.54916 -7.00377 0.00000
				CHANNELS 3 Zrotation Yrotation Xrotation
				JOINT RightAnkle
				{
					OFFSET -2.56374 -7.04382 0.00000
					CHANNELS 3 Zrotation Yrotation Xrotation
					JOINT RightToe
					{
						OFFSET -0.23520 -0.64621 2.09921
						CHANNELS 3 Zrotation Yrotation Xrotation
						End Site
						{
							OFFSET -0.00000 -0.00000 1.10065
						}
					}
				}
			}
		}
	}
	JOINT lowerback
	{
		OFFSET 0 0 0
		CHANNELS 3 Zrotation Yrotation Xrotation
		JOINT Chest
		{
			OFFSET 0.05492 2.10797 -0.12074
			CHANNELS 3 Zrotation Yrotation Xrotation
			JOINT Chest2
			{
				OFFSET 0.04577 2.11592 -0.04483
				CHANNELS 3 Zrotation Yrotation Xrotation
				JOINT lowerneck
				{
					OFFSET 0 0 0
					CHANNELS 3 Zrotation Yrotation Xrotation
					JOINT Neck
					{
						OFFSET -0.10759 1.80167 0.15770
						CHANNELS 3 Zrotation Yrotation Xrotation
						JOINT Head
						{
							OFFSET 0.09237 1.77509 -0.40848
							CHANNELS 3 Zrotation Yrotation Xrotation
							End Site
							{
								OFFSET 0.03805 1.84093 -0.15754
							}
						}
					}
				}
				JOINT LeftCollar
				{
					OFFSET 0 0 0
					CHANNELS 3 Zrotation Yrotation Xrotation
					JOINT LeftShoulder
					{
						OFFSET 3.42372 1.09575 -0.28209
CHANNELS 3 Zrotation Xrotation Yrotation
						JOINT LeftElbow
						{
OFFSET 0 -4.956810 0.000000
CHANNELS 3 Zrotation Xrotation Yrotation
							JOINT LeftWrist
							{
OFFSET 0 -3.409150 0.000000
CHANNELS 3 Zrotation Xrotation Yrotation
								JOINT lhand
								{
									OFFSET 0 0 0
CHANNELS 3 Zrotation Xrotation Yrotation
									JOINT LFingers
									{
OFFSET 0 -0.616400 0.000000
CHANNELS 3 Zrotation Xrotation Yrotation
										End Site
										{
OFFSET 0 -0.496960 0.000000
										}
									}
								}
								JOINT LThumb
								{
OFFSET 0 0.000000 0.000000
CHANNELS 3 Zrotation Xrotation Yrotation
									End Site
									{
OFFSET 0 -0.504550 0.504550
									}
								}
							}
						}
					}
				}
				JOINT RightCollar
				{
					OFFSET 0 0 0
					CHANNELS 3 Zrotation Yrotation Xrotation
					JOINT RightShoulder
					{
						OFFSET -3.24731 1.15872 -0.32221
CHANNELS 3 Zrotation Xrotation Yrotation
						JOINT RightElbow
						{
OFFSET 0 -5.352000 0.000000
CHANNELS 3 Zrotation Xrotation Yrotation
							JOINT RightWrist
							{
OFFSET 0 -3.437210 -0.000000
CHANNELS 3 Zrotation Xrotation Yrotation
								JOINT rhand
								{
									OFFSET 0 0 0
CHANNELS 3 Zrotation Xrotation Yrotation
									JOINT RFingers
									{
OFFSET 0 -0.720090 0.000000
CHANNELS 3 Zrotation Xrotation Yrotation
										End Site
										{
OFFSET 0 -0.580560 0.000000
										}
									}
								}
								JOINT RThumb
								{
OFFSET 0 0.000000 0.000000
CHANNELS 3 Zrotation Xrotation Yrotation
									End Site
									{
OFFSET 0 -0.589420 0.589420
									}
								}
							}
						}
					}
				}
			}
		}
	}
}
MOTION
Frames: 5
Frame Time: 0.008333333333333333
7.648300 17.353400 -22.394900 -104.515000 83.352500 -102.687000 0.000000 0.000000 0.000000 -13.683200 -4.855100 -7.607400 2.583900 9.988800 28.940600 0.720600 -10.914500 -15.889400 0.326000 3.669700 10.149100 0.000000 0.000000 0.000000 29.000900 -1.695400 -7.994900 -2.166900 -9.205400 26.439800 -1.200900 0.634400 -20.522900 -0.153500 -2.524800 6.958300 4.714600 1.193200 0.371100 2.899300 1.735900 -1.100500 0.311100 0.860400 -1.292400 -7.603200 -2.062800 -18.461100 4.400900 -1.594200 17.591300 2.545500 -0.774600 8.632800 -0.000000 -0.000000 0.000000 0.587800 5.314100 -24.408900 12.719300 -20.874500 2.352300 15.123200 9.730700 -19.421000 0.000000 0.000000 0.000000 -7.125000 0.000000 0.000000 -12.993300 49.595000 1.494600 -0.000000 -0.000000 0.000000 -4.346100 1.574000 14.151700 -12.521700 -20.582400 -2.282400 -18.954900 -9.699500 -14.826600 0.000000 0.000000 0.000000 7.125000 0.000000 -0.000000 5.816800 14.400600 4.209600
7.669205 17.344612 -22.429347 -112.388898 84.677105 -110.255935 0.000000 0.000000 0.000000 -15.449528 -4.478406 -7.349586 2.374922 9.606857 27.712615 0.644796 -11.150869 -15.252025 0.295074 3.491377 9.650171 0.000000 0.000000 0.000000 27.070948 -2.697927 -9.217868 -2.358168 -9.575277 27.612162 -1.280181 1.689223 -20.900870 -0.143724 -2.320735 6.399015 3.432154 1.127491 -0.027907 2.469157 1.591294 -1.113871 0.594235 0.793992 -1.105239 -7.894402 -2.217466 -18.643228 4.529006 -1.739625 17.887764 2.622689 -0.849672 8.780389 0.000000 0.000000 0.000000 0.219206 5.040724 -25.134042 12.997999 -21.284233 2.452556 14.566888 8.948113 -19.142869 0.000000 0.000000 0.000000 -7.125000 0.000000 0.000000 -13.419588 49.234608 1.424731 0.000000 0.000000 0.000000 -4.413411 1.627889 15.684731 -12.698098 -20.843178 -2.344760 -19.712601 -11.518298 -14.290394 0.000000 0.000000 0.000000 7.125000 0.000000 0.000000 5.282768 14.884257 3.764917
7.700869 17.346293 -22.437755 -113.957327 85.038059 -111.522129 0.000000 0.000000 0.000000 -15.791477 -3.759631 -7.759932 2.329499 9.521066 27.439422 0.595666 -12.037152 -15.073573 0.420788 4.159336 11.525872 0.000000 0.000000 0.000000 26.576953 -2.564348 -9.572541 -2.417117 -9.685572 27.964538 -1.315465 2.240863 -21.063623 -0.297573 -3.507453 9.694911 2.963582 1.159869 -0.376430 2.375393 1.617796 -1.270434 0.765228 0.809903 -1.079475 -7.576776 -2.161565 -18.570209 4.248794 -1.694029 18.642671 2.490180 -0.839755 9.018522 0.000000 0.000000 0.000000 -0.138488 4.846106 -25.178829 13.227983 -21.620331 2.536663 13.167404 9.427089 -18.892625 0.000000 0.000000 0.000000 -7.125000 0.000000 0.000000 -14.644329 48.781524 1.392803 0.000000 0.000000 0.000000 -4.009093 2.316885 17.620669 -13.540660 -22.074190 -2.653088 -18.897542 -12.905425 -13.874458 0.000000 0.000000 0.000000 7.125000 0.000000 0.000000 5.826204 15.399182 4.091212
7.720426 17.351930 -22.410683 -107.945038 84.996807 -105.588524 0.000000 0.000000 0.000000 -15.328367 -3.241404 -7.635831 2.318294 9.499783 27.371450 0.567104 -12.348285 -14.915620 0.377180 3.932560 10.888294 0.000000 0.000000 0.000000 26.868666 -1.164064 -8.965745 -2.467238 -9.778087 28.261151 -1.425982 2.698911 -21.906471 -0.991972 -5.130856 14.694329 3.061871 1.394053 -0.077734 2.272330 1.945941 -1.361822 0.593782 0.968516 -1.331526 -7.796943 -2.543661 -18.528015 4.737520 -2.272429 19.610990 2.633700 -1.073896 9.393249 0.000000 0.000000 0.000000 0.121073 4.778974 -26.631907 13.653181 -22.236793 2.695471 13.346204 8.548220 -19.222898 0.000000 0.000000 0.000000 -7.125000 0.000000 0.000000 -14.600043 49.132088 1.516633 0.000000 0.000000 0.000000 -2.748115 2.670302 17.432567 -14.026320 -22.772281 -2.838282 -19.160314 -12.093886 -14.469988 0.000000 0.000000 0.000000 7.125000 0.000000 0.000000 5.665167 14.751957 4.056368
7.737244 17.387409 -22.365441 -102.109479 85.751461 -99.683638 0.000000 0.000000 0.000000 -15.902027 -1.711568 -6.087464 1.734619 8.283651 23.582541 0.440064 -11.938294 -13.525838 0.500885 4.536204 12.590558 0.000000 0.000000 0.000000 25.777809 2.878169 -8.123181 -3.003284 -10.698467 31.271493 -1.831609 8.375219 -24.254590 -4.460102 -12.713485 38.363668 1.959234 1.284088 0.127084 2.285849 1.792835 -1.322719 1.220029 0.902296 -1.440641 -8.449060 -2.348458 -18.546118 5.469853 -1.980683 20.366437 3.053856 -0.905315 9.654926 0.000000 0.000000 0.000000 -0.210370 4.681686 -26.277134 14.083299 -22.853578 2.860349 14.048370 8.241490 -19.293371 0.000000 0.000000 0.000000 -7.125000 0.000000 0.000000 -13.964852 49.305901 1.509334 0.000000 0.000000 0.000000 -2.484891 2.683548 19.848933 -14.491192 -23.432542 -3.020689 -17.377465 -12.423646 -14.347469 0.000000 0.000000 0.000000 7.125000 0.000000 0.000000 6.875686 15.050697 4.890362
